<svg id="レイヤー_1" data-name="レイヤー 1" xmlns="http://www.w3.org/2000/svg" viewBox="0 0 1280 720"><defs><style>.cls-1{fill:#00357a;}.cls-2{fill:#fff;}</style></defs><title>blue_720</title><rect class="cls-1" width="1280" height="720"/><path class="cls-2" d="M666.05,333.52c24.33-25,36-38.53,36-51.37,0-9.24-5-16.67-16.45-16.67-6.76,0-12.84,4.06-17.35,9.69l-2.48-2.25c5.18-5.86,11.49-10.59,20.05-10.59,12.62,0,19.83,7.89,19.83,19.83,0,14.65-13.29,28.5-34.47,50.92,4.06-.22,8.11-.45,12.17-.45h25.91v3.15H666.05Z"/><path class="cls-2" d="M715.83,299.5c0-23.88,7.44-37.18,21-37.18s21,13.29,21,37.18-7.44,37.63-21,37.63S715.83,323.38,715.83,299.5Zm38.3,0c0-22.31-6.76-34-17.35-34s-17.35,11.72-17.35,34S726.2,334,736.79,334,754.13,321.8,754.13,299.5Z"/><path class="cls-2" d="M764.25,332.62h17.12V270.43H768.53V268a40,40,0,0,0,13.29-4.28h2.93v68.95h16v3.15h-36.5Z"/><path class="cls-2" d="M840.15,266.83H801.4v-3.15h43.49v2c-17.35,23.21-21.86,41.91-23,70.07h-3.83C819.2,306,825.51,287.33,840.15,266.83Z"/><path class="cls-2" d="M879.35,323.38a29.2,29.2,0,0,0,22.31,10.37c11.94,0,19.6-6.53,19.6-16,0-9.91-6.31-13.07-13.74-16.45L896,296.12c-6.31-2.82-15.1-7.21-15.1-18.25,0-10.59,9-17.8,21-17.8a27.57,27.57,0,0,1,20.28,8.79l-2.25,2.48a23.7,23.7,0,0,0-18-7.89c-10.36,0-17.35,5.63-17.35,14.2,0,9.24,7.77,12.73,13.07,15.1l11.49,5.18c8.22,3.72,15.77,8.11,15.77,19.6,0,11.27-9.24,19.6-23.21,19.6a31.61,31.61,0,0,1-24.78-11.27Z"/><path class="cls-2" d="M939.78,340.51v20.28H936.4V281.92h2.93l.45,7H940c5.41-4.28,11.94-8.34,18.7-8.34,14.64,0,21.63,10.81,21.63,27.49,0,18.25-11,29.06-23.88,29.06-5.18,0-10.81-2.48-16.67-6.76Zm16.9-6.53c11.72,0,20.05-10.81,20.05-25.91,0-13.74-5-24.33-18.25-24.33-5.63,0-11.72,3.38-18.7,9.46v33.35C946.32,331.94,952.4,334,956.68,334Z"/><path class="cls-2" d="M993.92,281.92h2.93l.45,10.14h.23c3.6-6.53,8.79-11.49,15.32-11.49a10.8,10.8,0,0,1,5.18,1.13l-.9,3.15a11.07,11.07,0,0,0-4.73-.9c-5,0-10.81,3.83-15.1,14.42v37.4h-3.38Z"/><path class="cls-2" d="M1025.07,264.35a3.83,3.83,0,0,1,7.66,0,3.83,3.83,0,0,1-7.66,0Zm2,17.57h3.38v53.85h-3.38Z"/><path class="cls-2" d="M1047.31,281.92h2.93l.45,8.56h.23c5.63-5.63,11.27-9.91,18.7-9.91,11,0,16.22,6.53,16.22,20.5v34.7h-3.38V301.53c0-11.94-3.83-17.8-13.07-17.8-6.76,0-11.72,3.6-18.7,10.81v41.23h-3.38Z"/><path class="cls-2" d="M1105.6,333.75v-.45a9.58,9.58,0,0,1-4.73-8.56c0-5,3.61-8.34,5.86-9.91v-.45A20.19,20.19,0,0,1,1100,299.5c0-10.81,8.11-18.93,18.48-18.93a18.22,18.22,0,0,1,7,1.35h18v3.15h-13.07a18.62,18.62,0,0,1,6.53,14.42c0,10.82-8.11,19.15-18.48,19.15a18.26,18.26,0,0,1-9.24-2.48c-2.48,2-4.73,4.51-4.73,8.34,0,4.06,2.25,7.44,10.59,7.44H1127c11.94,0,17.35,3.83,17.35,12.17,0,9-9.69,18-24.78,18-13.74,0-22.08-6.08-22.08-15.1C1097.49,342.31,1100.64,337.35,1105.6,333.75ZM1119.8,359c12.84,0,21-7.44,21-14.65,0-6.31-4.51-8.79-13.07-8.79h-12.39a37.3,37.3,0,0,1-6.53-.9c-5.41,3.61-7.66,8.11-7.66,12.17C1101.1,354,1107.85,359,1119.8,359Zm13.52-59.48c0-9.58-6.76-15.77-14.87-15.77s-14.87,6.08-14.87,15.77c0,9.46,7,16,14.87,16S1133.32,309,1133.32,299.5Z"/><path class="cls-2" d="M670.11,403.51a3.83,3.83,0,0,1,7.66,0,3.83,3.83,0,1,1-7.66,0Zm2,17.57h3.38v53.85h-3.38Z"/><path class="cls-2" d="M692.34,421.08h2.93l.45,8.56h.23c5.63-5.63,11.27-9.91,18.7-9.91,11,0,16.22,6.53,16.22,20.5v34.7h-3.38V440.69c0-11.94-3.83-17.8-13.07-17.8-6.76,0-11.72,3.6-18.7,10.81v41.23h-3.38Z"/><path class="cls-2" d="M770.52,462.54a29.2,29.2,0,0,0,22.31,10.37c11.94,0,19.6-6.53,19.6-16,0-9.91-6.31-13.07-13.74-16.45l-11.49-5.18c-6.31-2.82-15.1-7.21-15.1-18.25,0-10.59,9-17.8,21-17.8A27.57,27.57,0,0,1,813.33,408l-2.25,2.48a23.7,23.7,0,0,0-18-7.89c-10.36,0-17.35,5.63-17.35,14.2,0,9.24,7.77,12.73,13.07,15.1l11.49,5.18c8.22,3.72,15.77,8.11,15.77,19.6,0,11.27-9.24,19.6-23.21,19.6A31.61,31.61,0,0,1,768,465Z"/><path class="cls-2" d="M827.57,393.6h3.38v36.27c5.86-5.86,11.49-10.14,18.93-10.14,11,0,16.22,6.53,16.22,20.5v34.7h-3.38V440.69c0-11.94-3.83-17.8-13.07-17.8-6.76,0-11.72,3.6-18.7,10.81v41.23h-3.38Z"/><path class="cls-2" d="M880.11,403.51a3.83,3.83,0,1,1,7.66,0,3.83,3.83,0,1,1-7.66,0Zm2,17.57h3.38v53.85h-3.38Z"/><path class="cls-2" d="M902.35,393.6h3.38V417.7l-.22,10.82c5.63-4.73,12.39-8.79,19.15-8.79,14.64,0,21.63,10.81,21.63,27.49,0,18.25-11,29.06-23.88,29.06-5.18,0-11.26-2.48-16.45-6.31h-.23l-.45,5h-2.93Zm20.28,79.53c11.72,0,20.05-10.81,20.05-25.91,0-13.74-5-24.33-18.25-24.33-5.63,0-11.94,3.38-18.7,9.46V465.7C912,471.1,918.34,473.13,922.62,473.13Z"/><path class="cls-2" d="M959.28,421.08h3.38v34.25c0,11.94,3.83,17.8,13.07,17.8,6.76,0,11.72-3.6,18.48-11.72V421.08h3.38v53.85h-2.93l-.45-9.24H994c-5.41,6.31-11,10.59-18.48,10.59-11,0-16.22-6.53-16.22-20.5Z"/><path class="cls-2" d="M1013.82,496.56c6.76,0,11.49-6.53,14.42-15.32l1.58-5-22.31-55.2h3.83l13.74,35.37c1.8,4.51,4.06,10.36,6.08,15.1h.45c1.8-4.73,3.61-10.59,5.18-15.1L1049,421.08h3.6l-21.63,61.51c-2.7,8.34-8.11,17.35-17.35,17.35a12.52,12.52,0,0,1-5.18-1.13l.9-3.15A13.32,13.32,0,0,0,1013.82,496.56Z"/><path class="cls-2" d="M1094.25,441.36c.23-8.79-2-18.48-13.29-18.48-7.66,0-14.19,3.83-17.57,6.53l-1.8-2.7c3.38-2.48,10.82-7,19.6-7,12.62,0,16.45,9.46,16.45,20.28v34.92h-2.93l-.45-7.21H1094c-5.63,4.51-12.39,8.56-19.6,8.56-8.34,0-15.55-4.28-15.55-14.53C1058.87,449.7,1069.92,444.07,1094.25,441.36Zm-19.6,31.77c6.53,0,12.39-3.15,19.6-9.24v-19.6c-23.66,2.7-31.77,8.11-31.77,17.35C1062.48,470,1068.11,473.13,1074.65,473.13Z"/><path class="cls-2" d="M345.51,190.32H160.77a12,12,0,0,0-11,16.92L192,302.15a391,391,0,0,1,33.77,158.94v76.05a12,12,0,0,0,12,12h30.65a12,12,0,0,0,12-12V461.09a391,391,0,0,1,33.77-158.94l42.24-94.91A12,12,0,0,0,345.51,190.32Z"/><path class="cls-2" d="M518.38,320.09a82.31,82.31,0,1,0-132.2-.12,17.71,17.71,0,0,1-3.88,24.77c-36.44,26.65-57.12,73.57-45.44,124.17a116.8,116.8,0,0,0,90.24,87.85c76.6,15.76,144-42.32,144-116.14a118.56,118.56,0,0,0-48.77-95.94A17.56,17.56,0,0,1,518.38,320.09Z"/></svg>