<svg id="レイヤー_1" data-name="レイヤー 1" xmlns="http://www.w3.org/2000/svg" viewBox="0 0 2048 1024"><defs><style>.cls-1{fill:#00357a;}.cls-2{font-size:170px;font-family:SourceSansPro-ExtraLight, Source Sans Pro;}.cls-15,.cls-2{fill:#fff;}.cls-3{letter-spacing:-0.04em;}.cls-4{letter-spacing:-0.08em;}.cls-5{letter-spacing:-0.1em;}.cls-6{letter-spacing:-0.03em;}.cls-7{letter-spacing:-0.03em;}.cls-8{letter-spacing:-0.01em;}.cls-9{letter-spacing:-0.04em;}.cls-10{letter-spacing:-0.04em;}.cls-11{letter-spacing:-0.04em;}.cls-12{letter-spacing:-0.03em;}.cls-13{letter-spacing:-0.02em;}.cls-14{letter-spacing:-0.02em;}</style></defs><title>blue_banner</title><rect class="cls-1" width="2048" height="1024"/><text class="cls-2" transform="translate(1016.94 454.26)"><tspan class="cls-3">2</tspan><tspan class="cls-4" x="73.76" y="0">0</tspan><tspan class="cls-5" x="140.7" y="0">1</tspan><tspan x="203.91" y="0">7 </tspan><tspan class="cls-6" x="317.8" y="0">S</tspan><tspan class="cls-7" x="398.79" y="0">p</tspan><tspan class="cls-8" x="485.59" y="0">r</tspan><tspan class="cls-9" x="535.66" y="0">i</tspan><tspan class="cls-10" x="566.15" y="0">n</tspan><tspan x="649.02" y="0">g</tspan><tspan class="cls-9" x="0" y="210">i</tspan><tspan x="30.5" y="210">n </tspan><tspan class="cls-6" x="153.57" y="210">S</tspan><tspan class="cls-11" x="234.56" y="210">h</tspan><tspan class="cls-9" x="316.91" y="210">i</tspan><tspan class="cls-12" x="347.4" y="210">b</tspan><tspan class="cls-13" x="434.68" y="210">u</tspan><tspan class="cls-14" x="520.39" y="210">y</tspan><tspan x="588.37" y="210">a</tspan></text><path class="cls-15" d="M540.38,234.78H261.6A18.15,18.15,0,0,0,245,260.31l63.74,143.23a590,590,0,0,1,51,239.85V758.16a18.15,18.15,0,0,0,18.15,18.15h46.25a18.15,18.15,0,0,0,18.15-18.15V643.39a590,590,0,0,1,51-239.85L557,260.31A18.15,18.15,0,0,0,540.38,234.78Z"/><path class="cls-15" d="M801.24,430.61a123.64,123.64,0,0,0,24.52-74.24c-.07-67.52-54.85-123.07-122.36-124.06A124.21,124.21,0,0,0,601.75,430.43a26.72,26.72,0,0,1-5.85,37.38c-55,40.22-86.2,111-68.58,187.38,15.44,66.9,68.93,118.74,136.18,132.57,115.6,23.78,217.24-63.86,217.24-175.26a178.91,178.91,0,0,0-73.6-144.77A26.49,26.49,0,0,1,801.24,430.61Z"/></svg>