<svg id="レイヤー_1" data-name="レイヤー 1" xmlns="http://www.w3.org/2000/svg" viewBox="0 0 2048 1024"><defs><style>.cls-1{fill:#fff;}.cls-2{fill:#4d4d4d;}</style></defs><title>mono_banner</title><rect class="cls-1" width="2048" height="1024"/><path class="cls-2" d="M1024.08,450.86c36.72-37.74,54.4-58.14,54.4-77.52,0-13.94-7.48-25.16-24.82-25.16-10.2,0-19.38,6.12-26.18,14.62l-3.74-3.4c7.82-8.84,17.34-16,30.26-16,19,0,29.92,11.9,29.92,29.92,0,22.1-20.06,43-52,76.84,6.12-.34,12.24-.68,18.36-.68h39.1v4.76h-65.28Z"/><path class="cls-2" d="M1099.2,399.52c0-36,11.22-56.1,31.62-56.1s31.62,20.06,31.62,56.1-11.22,56.78-31.62,56.78S1099.2,435.56,1099.2,399.52Zm57.8,0c0-33.66-10.2-51.34-26.18-51.34s-26.18,17.68-26.18,51.34,10.2,52,26.18,52S1157,433.18,1157,399.52Z"/><path class="cls-2" d="M1172.27,449.5h25.84V355.66h-19.38v-3.74c8.5-1.36,15.3-3.74,20.06-6.46h4.42v104h24.14v4.76h-55.08Z"/><path class="cls-2" d="M1286.81,350.22h-58.48v-4.76h65.62v3.06c-26.18,35-33,63.24-34.68,105.74h-5.78C1255.19,409.38,1264.71,381.16,1286.81,350.22Z"/><path class="cls-2" d="M1346,435.56a44.06,44.06,0,0,0,33.66,15.64c18,0,29.58-9.86,29.58-24.14,0-15-9.52-19.72-20.74-24.82l-17.34-7.82c-9.52-4.25-22.78-10.88-22.78-27.54,0-16,13.6-26.86,31.62-26.86a41.61,41.61,0,0,1,30.6,13.26l-3.4,3.74a35.77,35.77,0,0,0-27.2-11.9c-15.64,0-26.18,8.5-26.18,21.42,0,13.94,11.73,19.21,19.72,22.78l17.34,7.82c12.41,5.61,23.8,12.24,23.8,29.58,0,17-13.94,29.58-35,29.58-16.66,0-28.9-7.14-37.4-17Z"/><path class="cls-2" d="M1437.15,461.4V492h-5.1V373h4.42l.68,10.54h.34c8.16-6.46,18-12.58,28.22-12.58,22.1,0,32.64,16.32,32.64,41.48,0,27.54-16.66,43.86-36,43.86-7.82,0-16.32-3.74-25.16-10.2Zm25.5-9.86c17.68,0,30.26-16.32,30.26-39.1,0-20.74-7.48-36.72-27.54-36.72-8.5,0-17.68,5.1-28.22,14.28v50.32C1447,448.48,1456.19,451.54,1462.65,451.54Z"/><path class="cls-2" d="M1518.85,373h4.42l.68,15.3h.34c5.44-9.86,13.26-17.34,23.12-17.34a16.3,16.3,0,0,1,7.82,1.7l-1.36,4.76a16.72,16.72,0,0,0-7.14-1.36c-7.48,0-16.32,5.78-22.78,21.76v56.44h-5.1Z"/><path class="cls-2" d="M1565.86,346.48a5.78,5.78,0,0,1,11.56,0,5.78,5.78,0,0,1-11.56,0Zm3.06,26.52h5.1v81.26h-5.1Z"/><path class="cls-2" d="M1599.41,373h4.42l.68,12.92h.34c8.5-8.5,17-15,28.22-15,16.66,0,24.48,9.86,24.48,30.94v52.36h-5.1V402.58c0-18-5.78-26.86-19.72-26.86-10.2,0-17.68,5.44-28.22,16.32v62.22h-5.1Z"/><path class="cls-2" d="M1687.39,451.2v-.68a14.46,14.46,0,0,1-7.14-12.92c0-7.48,5.44-12.58,8.84-15V422a30.47,30.47,0,0,1-10.2-22.44c0-16.32,12.24-28.56,27.88-28.56a27.49,27.49,0,0,1,10.54,2h27.2v4.76h-19.72a28.1,28.1,0,0,1,9.86,21.76c0,16.32-12.24,28.9-27.88,28.9a27.57,27.57,0,0,1-13.94-3.74c-3.74,3.06-7.14,6.8-7.14,12.58,0,6.12,3.4,11.22,16,11.22h18c18,0,26.18,5.78,26.18,18.36,0,13.6-14.62,27.2-37.4,27.2-20.74,0-33.32-9.18-33.32-22.78C1675.15,464.12,1679.91,456.64,1687.39,451.2Zm21.42,38.08c19.38,0,31.62-11.22,31.62-22.1,0-9.52-6.8-13.26-19.72-13.26H1702a56.4,56.4,0,0,1-9.86-1.36c-8.16,5.44-11.56,12.24-11.56,18.36C1680.59,481.8,1690.79,489.28,1708.81,489.28Zm20.4-89.76c0-14.45-10.2-23.8-22.44-23.8s-22.44,9.18-22.44,23.8c0,14.28,10.54,24.14,22.44,24.14S1729.21,413.8,1729.21,399.52Z"/><path class="cls-2" d="M1030.2,556.48a5.78,5.78,0,0,1,11.56,0,5.78,5.78,0,1,1-11.56,0Zm3.06,26.52h5.1v81.26h-5.1Z"/><path class="cls-2" d="M1063.76,583h4.42l.68,12.92h.34c8.5-8.5,17-15,28.22-15,16.66,0,24.48,9.86,24.48,30.94v52.36h-5.1V612.58c0-18-5.78-26.86-19.72-26.86-10.2,0-17.68,5.44-28.22,16.32v62.22h-5.1Z"/><path class="cls-2" d="M1181.74,645.56a44.06,44.06,0,0,0,33.66,15.64c18,0,29.58-9.86,29.58-24.14,0-15-9.52-19.72-20.74-24.82l-17.34-7.82c-9.52-4.25-22.78-10.88-22.78-27.54,0-16,13.6-26.86,31.62-26.86a41.61,41.61,0,0,1,30.6,13.26l-3.4,3.74a35.77,35.77,0,0,0-27.2-11.9c-15.64,0-26.18,8.5-26.18,21.42,0,13.94,11.73,19.21,19.72,22.78l17.34,7.82c12.41,5.61,23.8,12.24,23.8,29.58,0,17-13.94,29.58-35,29.58-16.66,0-28.9-7.14-37.4-17Z"/><path class="cls-2" d="M1267.82,541.52h5.1v54.74c8.84-8.84,17.34-15.3,28.56-15.3,16.66,0,24.48,9.86,24.48,30.94v52.36h-5.1V612.58c0-18-5.78-26.86-19.72-26.86-10.2,0-17.68,5.44-28.22,16.32v62.22h-5.1Z"/><path class="cls-2" d="M1347.11,556.48a5.78,5.78,0,0,1,11.56,0,5.78,5.78,0,1,1-11.56,0Zm3.06,26.52h5.1v81.26h-5.1Z"/><path class="cls-2" d="M1380.66,541.52h5.1V577.9l-.34,16.32c8.5-7.14,18.7-13.26,28.9-13.26,22.1,0,32.64,16.32,32.64,41.48,0,27.54-16.66,43.86-36,43.86-7.82,0-17-3.74-24.82-9.52h-.34l-.68,7.48h-4.42Zm30.6,120c17.68,0,30.26-16.32,30.26-39.1,0-20.74-7.48-36.72-27.54-36.72-8.5,0-18,5.1-28.22,14.28v50.32C1395.28,658.48,1404.8,661.54,1411.26,661.54Z"/><path class="cls-2" d="M1466.58,583h5.1v51.68c0,18,5.78,26.86,19.72,26.86,10.2,0,17.68-5.44,27.88-17.68V583h5.1v81.26H1520l-.68-13.94h-.34c-8.16,9.52-16.66,16-27.88,16-16.66,0-24.48-9.86-24.48-30.94Z"/><path class="cls-2" d="M1548.89,696.9c10.2,0,17.34-9.86,21.76-23.12l2.38-7.48L1539.37,583h5.78l20.74,53.38c2.72,6.8,6.12,15.64,9.18,22.78h.68c2.72-7.14,5.44-16,7.82-22.78L1601.93,583h5.44l-32.64,92.82c-4.08,12.58-12.24,26.18-26.18,26.18a18.89,18.89,0,0,1-7.82-1.7l1.36-4.76A20.1,20.1,0,0,0,1548.89,696.9Z"/><path class="cls-2" d="M1670.25,613.6c.34-13.26-3.06-27.88-20.06-27.88-11.56,0-21.42,5.78-26.52,9.86L1621,591.5c5.1-3.74,16.32-10.54,29.58-10.54,19,0,24.82,14.28,24.82,30.6v52.7h-4.42l-.68-10.88h-.34c-8.5,6.8-18.7,12.92-29.58,12.92-12.58,0-23.46-6.46-23.46-21.93C1616.88,626.18,1633.54,617.68,1670.25,613.6Zm-29.58,47.94c9.86,0,18.7-4.76,29.58-13.94V618c-35.7,4.08-47.94,12.24-47.94,26.18C1622.32,656.78,1630.82,661.54,1640.67,661.54Z"/><path class="cls-2" d="M540.38,234.78H261.6A18.15,18.15,0,0,0,245,260.31l63.74,143.23a590,590,0,0,1,51,239.85V758.16a18.15,18.15,0,0,0,18.15,18.15h46.25a18.15,18.15,0,0,0,18.15-18.15V643.39a590,590,0,0,1,51-239.85L557,260.31A18.15,18.15,0,0,0,540.38,234.78Z"/><path class="cls-2" d="M801.24,430.61a123.64,123.64,0,0,0,24.52-74.24c-.07-67.52-54.85-123.07-122.36-124.06A124.21,124.21,0,0,0,601.75,430.43a26.72,26.72,0,0,1-5.85,37.38c-55,40.22-86.2,111-68.58,187.38,15.44,66.9,68.93,118.74,136.18,132.57,115.6,23.78,217.24-63.86,217.24-175.26a178.91,178.91,0,0,0-73.6-144.77A26.49,26.49,0,0,1,801.24,430.61Z"/></svg>