<svg id="レイヤー_1" data-name="レイヤー 1" xmlns="http://www.w3.org/2000/svg" viewBox="0 0 1024 1024"><defs><style>.cls-1{fill:#fff;}</style></defs><title>transparent_icon</title><path class="cls-1" d="M293.58,804.56c22.39-23,33.17-35.46,33.17-47.27,0-8.5-4.56-15.34-15.14-15.34-6.22,0-11.82,3.73-16,8.92l-2.28-2.07c4.77-5.39,10.57-9.75,18.45-9.75,11.61,0,18.25,7.26,18.25,18.25,0,13.48-12.23,26.23-31.72,46.86,3.73-.21,7.46-.41,11.2-.41h23.84v2.9H293.58Z"/><path class="cls-1" d="M339.39,773.26c0-22,6.84-34.21,19.28-34.21S378,751.28,378,773.26s-6.84,34.63-19.28,34.63S339.39,795.23,339.39,773.26Zm35.25,0c0-20.53-6.22-31.31-16-31.31s-16,10.78-16,31.31,6.22,31.72,16,31.72S374.64,793.78,374.64,773.26Z"/><path class="cls-1" d="M383.95,803.73H399.7V746.51H387.89v-2.28a36.82,36.82,0,0,0,12.23-3.94h2.7v63.45h14.72v2.9H383.95Z"/><path class="cls-1" d="M453.8,743.19H418.13v-2.9h40v1.87c-16,21.36-20.11,38.56-21.15,64.48h-3.52C434.51,779.27,440.32,762.06,453.8,743.19Z"/><path class="cls-1" d="M489.87,795.23a26.87,26.87,0,0,0,20.53,9.54c11,0,18-6,18-14.72,0-9.12-5.8-12-12.65-15.14l-10.57-4.77c-5.81-2.59-13.89-6.63-13.89-16.79,0-9.75,8.29-16.38,19.28-16.38a25.38,25.38,0,0,1,18.66,8.09l-2.07,2.28a21.81,21.81,0,0,0-16.59-7.26c-9.54,0-16,5.18-16,13.06,0,8.5,7.15,11.71,12,13.89l10.57,4.77c7.57,3.42,14.51,7.46,14.51,18,0,10.37-8.5,18-21.36,18a29.09,29.09,0,0,1-22.81-10.37Z"/><path class="cls-1" d="M545.48,811v18.66h-3.11V757.08h2.7l.41,6.43h.21c5-3.94,11-7.67,17.21-7.67,13.48,0,19.9,10,19.9,25.3,0,16.79-10.16,26.75-22,26.75-4.77,0-10-2.28-15.34-6.22ZM561,805c10.78,0,18.45-10,18.45-23.84,0-12.65-4.56-22.39-16.79-22.39-5.18,0-10.78,3.11-17.21,8.71v30.69C551.49,803.11,557.09,805,561,805Z"/><path class="cls-1" d="M595.3,757.08H598l.42,9.33h.21c3.32-6,8.09-10.57,14.1-10.57a9.94,9.94,0,0,1,4.77,1l-.83,2.9a10.19,10.19,0,0,0-4.35-.83c-4.56,0-10,3.52-13.89,13.27v34.42H595.3Z"/><path class="cls-1" d="M624,740.91a3.53,3.53,0,0,1,7.05,0,3.53,3.53,0,0,1-7.05,0Zm1.87,16.17h3.11v49.55h-3.11Z"/><path class="cls-1" d="M644.43,757.08h2.7l.42,7.88h.21c5.18-5.18,10.37-9.12,17.21-9.12,10.16,0,14.93,6,14.93,18.87v31.93h-3.11V775.12c0-11-3.53-16.38-12-16.38-6.22,0-10.78,3.32-17.21,10v37.94h-3.11Z"/><path class="cls-1" d="M698.08,804.77v-.41a8.82,8.82,0,0,1-4.35-7.88c0-4.56,3.32-7.67,5.39-9.12v-.42a18.58,18.58,0,0,1-6.22-13.68c0-10,7.46-17.42,17-17.42a16.75,16.75,0,0,1,6.43,1.24h16.59V760h-12a17.13,17.13,0,0,1,6,13.27c0,10-7.46,17.62-17,17.62a16.81,16.81,0,0,1-8.5-2.28c-2.28,1.87-4.35,4.15-4.35,7.67,0,3.73,2.07,6.84,9.74,6.84h11c11,0,16,3.52,16,11.2,0,8.29-8.92,16.59-22.81,16.59-12.65,0-20.32-5.6-20.32-13.89C690.61,812.65,693.51,808.09,698.08,804.77ZM711.14,828c11.82,0,19.28-6.84,19.28-13.48,0-5.81-4.15-8.09-12-8.09H707a34.41,34.41,0,0,1-6-.83c-5,3.32-7,7.46-7,11.2C693.93,823.43,700.15,828,711.14,828Zm12.44-54.74c0-8.81-6.22-14.51-13.68-14.51s-13.68,5.6-13.68,14.51c0,8.71,6.43,14.72,13.68,14.72S723.58,782,723.58,773.26Z"/><path class="cls-1" d="M315.08,860.33a3.52,3.52,0,0,1,7,0,3.52,3.52,0,0,1-7,0Zm1.87,16.17h3.11v49.55h-3.11Z"/><path class="cls-1" d="M335.54,876.5h2.7l.41,7.88h.21c5.18-5.18,10.37-9.12,17.21-9.12,10.16,0,14.93,6,14.93,18.87v31.93h-3.11V894.54c0-11-3.52-16.38-12-16.38-6.22,0-10.78,3.32-17.21,10v37.94h-3.11Z"/><path class="cls-1" d="M407.49,914.65A26.87,26.87,0,0,0,428,924.19c11,0,18-6,18-14.72,0-9.12-5.81-12-12.65-15.14l-10.57-4.77c-5.81-2.59-13.89-6.63-13.89-16.79,0-9.75,8.29-16.38,19.28-16.38a25.38,25.38,0,0,1,18.66,8.09l-2.07,2.28a21.81,21.81,0,0,0-16.59-7.26c-9.54,0-16,5.18-16,13.06,0,8.5,7.15,11.71,12,13.89l10.57,4.77c7.57,3.42,14.51,7.46,14.51,18,0,10.37-8.5,18-21.36,18a29.09,29.09,0,0,1-22.81-10.37Z"/><path class="cls-1" d="M460,851.21h3.11v33.38c5.39-5.39,10.57-9.33,17.42-9.33,10.16,0,14.93,6,14.93,18.87v31.93h-3.11V894.54c0-11-3.52-16.38-12-16.38-6.22,0-10.78,3.32-17.21,10v37.94H460Z"/><path class="cls-1" d="M508.33,860.33a3.52,3.52,0,0,1,7,0,3.52,3.52,0,0,1-7,0Zm1.87,16.17h3.11v49.55H510.2Z"/><path class="cls-1" d="M528.8,851.21h3.11v22.19l-.21,10c5.18-4.35,11.4-8.09,17.62-8.09,13.48,0,19.9,10,19.9,25.3,0,16.79-10.16,26.75-22,26.75-4.77,0-10.37-2.28-15.14-5.81h-.21l-.42,4.56h-2.7Zm18.66,73.19c10.78,0,18.45-10,18.45-23.84,0-12.65-4.56-22.39-16.79-22.39-5.18,0-11,3.11-17.21,8.71v30.69C537.71,922.53,543.52,924.4,547.46,924.4Z"/><path class="cls-1" d="M581.19,876.5h3.11V908c0,11,3.53,16.38,12,16.38,6.22,0,10.78-3.32,17-10.78V876.5h3.11v49.55h-2.7l-.42-8.5h-.21c-5,5.81-10.16,9.75-17,9.75-10.16,0-14.93-6-14.93-18.87Z"/><path class="cls-1" d="M631.39,946c6.22,0,10.57-6,13.27-14.1l1.45-4.56-20.53-50.8h3.52l12.65,32.55c1.66,4.15,3.73,9.54,5.6,13.89h.41c1.66-4.35,3.32-9.74,4.77-13.89l11.2-32.55H667l-19.9,56.6c-2.49,7.67-7.46,16-16,16a11.52,11.52,0,0,1-4.77-1l.83-2.9A12.28,12.28,0,0,0,631.39,946Z"/><path class="cls-1" d="M705.39,895.16c.21-8.09-1.87-17-12.23-17-7,0-13.06,3.52-16.17,6l-1.66-2.49c3.11-2.28,10-6.43,18-6.43,11.61,0,15.14,8.71,15.14,18.66v32.14h-2.7l-.42-6.63h-.21c-5.18,4.15-11.4,7.88-18,7.88-7.67,0-14.31-3.94-14.31-13.37C672.84,902.83,683,897.65,705.39,895.16Zm-18,29.24c6,0,11.4-2.9,18-8.5v-18c-21.77,2.49-29.23,7.46-29.23,16C676.16,921.49,681.34,924.4,687.36,924.4Z"/><path class="cls-1" d="M490.29,112.73H211.52a18.15,18.15,0,0,0-16.58,25.53L258.67,281.5a590,590,0,0,1,51,239.85V636.11a18.15,18.15,0,0,0,18.15,18.15H374a18.15,18.15,0,0,0,18.15-18.15V521.35a590,590,0,0,1,51-239.85l63.74-143.23A18.15,18.15,0,0,0,490.29,112.73Z"/><path class="cls-1" d="M751.16,308.56a123.64,123.64,0,0,0,24.52-74.24c-.07-67.52-54.85-123.07-122.36-124.06A124.21,124.21,0,0,0,551.66,308.39a26.72,26.72,0,0,1-5.85,37.38c-55,40.22-86.2,111-68.58,187.38,15.44,66.9,68.93,118.74,136.18,132.57C729,689.52,830.65,601.87,830.65,490.47A178.91,178.91,0,0,0,757,345.7,26.49,26.49,0,0,1,751.16,308.56Z"/></svg>