<svg id="レイヤー_1" data-name="レイヤー 1" xmlns="http://www.w3.org/2000/svg" viewBox="0 0 1024 1024"><defs><style>.cls-1{font-size:103.67px;font-family:SourceSansPro-ExtraLight, Source Sans Pro;}.cls-1,.cls-15{fill:#fff;}.cls-2{letter-spacing:-0.04em;}.cls-3{letter-spacing:-0.08em;}.cls-4{letter-spacing:-0.1em;}.cls-5{letter-spacing:-0.03em;}.cls-6{letter-spacing:-0.03em;}.cls-7{letter-spacing:-0.01em;}.cls-8{letter-spacing:-0.04em;}.cls-9{letter-spacing:-0.04em;}.cls-10{letter-spacing:-0.04em;}.cls-11{letter-spacing:-0.04em;}.cls-12{letter-spacing:-0.03em;}.cls-13{letter-spacing:-0.02em;}.cls-14{letter-spacing:-0.02em;}</style></defs><title>transparent_icon</title><text class="cls-1" transform="translate(289.23 806.64)"><tspan class="cls-2">2</tspan><tspan class="cls-3" x="44.98" y="0">0</tspan><tspan class="cls-4" x="85.8" y="0">1</tspan><tspan x="124.35" y="0">7 </tspan><tspan class="cls-5" x="193.8" y="0">S</tspan><tspan class="cls-6" x="243.19" y="0">p</tspan><tspan class="cls-7" x="296.12" y="0">r</tspan><tspan class="cls-8" x="326.65" y="0">i</tspan><tspan class="cls-9" x="345.25" y="0">n</tspan><tspan x="395.79" y="0">g</tspan><tspan class="cls-10" x="17.77" y="119.42">i</tspan><tspan x="36.36" y="119.42">n </tspan><tspan class="cls-5" x="111.42" y="119.42">S</tspan><tspan class="cls-11" x="160.81" y="119.42">h</tspan><tspan class="cls-8" x="211.02" y="119.42">i</tspan><tspan class="cls-12" x="229.62" y="119.42">b</tspan><tspan class="cls-13" x="282.84" y="119.42">u</tspan><tspan class="cls-14" x="335.11" y="119.42">y</tspan><tspan x="376.57" y="119.42">a</tspan></text><path class="cls-15" d="M490.29,112.73H211.52a18.15,18.15,0,0,0-16.58,25.53L258.67,281.5a590,590,0,0,1,51,239.85V636.11a18.15,18.15,0,0,0,18.15,18.15H374a18.15,18.15,0,0,0,18.15-18.15V521.35a590,590,0,0,1,51-239.85l63.74-143.23A18.15,18.15,0,0,0,490.29,112.73Z"/><path class="cls-15" d="M751.16,308.56a123.64,123.64,0,0,0,24.52-74.24c-.07-67.52-54.85-123.07-122.36-124.06A124.21,124.21,0,0,0,551.66,308.39a26.72,26.72,0,0,1-5.85,37.38c-55,40.22-86.2,111-68.58,187.38,15.44,66.9,68.93,118.74,136.18,132.57C729,689.52,830.65,601.87,830.65,490.47A178.91,178.91,0,0,0,757,345.7,26.49,26.49,0,0,1,751.16,308.56Z"/></svg>